Coordinates
version=1
nRows=17
nColumns=27
inDegrees=yes

Units are S.I. units (second, meters, Newtons, ...)
If the header above contains a line with 'inDegrees', this indicates whether rotational values are in degrees (yes) or radians (no).

endheader
time	pelvis_rotation	pelvis_tilt	pelvis_list	pelvis_tx	pelvis_ty	pelvis_tz	hip_flexion_r	hip_adduction_r	hip_rotation_r	knee_angle_r	knee_rotation_r	knee_adduction_r	knee_angle_r_beta	ankle_angle_r	subtalar_angle_r	mtp_angle_r	hip_flexion_l	hip_adduction_l	hip_rotation_l	knee_angle_l	knee_rotation_l	knee_adduction_l	knee_angle_l_beta	ankle_angle_l	subtalar_angle_l	mtp_angle_l
      2.29500000	      1.68469097	    -20.76766142	     -0.35528548	      0.04242582	      0.83739959	     -1.18446413	     32.29684216	    -24.36621083	    -34.69301854	     18.43657223	      0.00000000	      4.44059913	      0.32177889	     -6.58345760	      0.00000000	      0.00000000	     34.34012726	    -21.54845393	    -12.81626569	     13.60468168	      0.00000000	      0.06277283	      0.23744649	     -9.56559979	      0.00000000	      0.00000000
      2.30000000	      1.56352874	    -21.22970903	      0.01789608	      0.04130087	      0.83685640	     -1.18498526	     33.43489872	    -24.96710567	    -34.20924890	     19.28899299	      0.00000000	      4.60185126	      0.33665644	     -6.33496091	      0.00000000	      0.00000000	     34.98802003	    -21.30661201	    -13.31276740	     14.03935565	      0.00000000	     -0.26611485	      0.24503298	     -9.38960068	      0.00000000	      0.00000000
      2.30500000	      2.17614278	    -21.31208466	      0.15558488	      0.04101338	      0.83642333	     -1.18547597	     33.50574741	    -25.54415262	    -35.44584274	     19.89009995	      0.00000000	      5.50099161	      0.34714773	     -6.15253145	      0.00000000	      0.00000000	     35.54074100	    -21.05033277	    -12.75671821	     14.36886652	      0.00000000	     -0.47465691	      0.25078403	     -9.29667057	      0.00000000	      0.00000000
      2.31000000	      2.22970736	    -21.87067779	      0.35090288	      0.03962713	      0.83573401	     -1.18586608	     34.59795486	    -26.00369896	    -35.18271358	     20.68012988	      0.00000000	      5.62855051	      0.36093636	     -5.91674505	      0.00000000	      0.00000000	     36.54540808	    -20.95571971	    -12.87504117	     15.01711233	      0.00000000	     -0.77015757	      0.26209805	     -9.06298996	      0.00000000	      0.00000000
      2.31500000	      1.88341387	    -22.94577048	      0.65340160	      0.03693917	      0.83469089	     -1.18623217	     36.75009671	    -26.43066133	    -33.54619550	     21.72658580	      0.00000000	      4.95536654	      0.37920046	     -5.66338277	      0.00000000	      0.00000000	     38.10358535	    -20.92421174	    -13.28912667	     15.96069416	      0.00000000	     -0.95647934	      0.27856666	     -8.68886910	      0.00000000	      0.00000000
      2.32000000	      2.36640559	    -22.97099378	      0.68169741	      0.03676671	      0.83413041	     -1.18654179	     36.76767281	    -26.87514110	    -34.65954567	     22.28315749	      0.00000000	      5.84796546	      0.38891447	     -5.46079009	      0.00000000	      0.00000000	     38.65098974	    -20.85016301	    -13.05835091	     16.46376737	      0.00000000	     -1.44417056	      0.28734695	     -8.48736687	      0.00000000	      0.00000000
      2.32500000	      2.38971943	    -23.45477085	      0.83804590	      0.03539741	      0.83325576	     -1.18684564	     37.81388123	    -27.28223030	    -34.31775191	     23.08193799	      0.00000000	      5.92934522	      0.40285582	     -5.26395691	      0.00000000	      0.00000000	     39.60732097	    -20.83125320	    -13.24147428	     17.17385767	      0.00000000	     -1.82022158	      0.29974036	     -8.22954378	      0.00000000	      0.00000000
      2.33000000	      2.08795304	    -24.72767296	      1.66410777	      0.03225557	      0.83181717	     -1.18759487	     40.64363395	    -28.25519894	    -32.23679234	     24.58581000	      0.00000000	      5.31217610	      0.42910333	     -4.79499504	      0.00000000	      0.00000000	     41.17350172	    -20.34419567	    -13.76155039	     17.93397394	      0.00000000	     -1.76022642	      0.31300689	     -8.00190691	      0.00000000	      0.00000000
      2.33500000	      2.45578040	    -24.44565137	      1.06903294	      0.03255995	      0.83127388	     -1.18731860	     39.92213146	    -28.02021736	    -33.67944070	     24.68458511	      0.00000000	      6.12683184	      0.43082728	     -4.82254034	      0.00000000	      0.00000000	     41.67325035	    -20.90866902	    -13.55470456	     18.75770951	      0.00000000	     -2.64231785	      0.32738379	     -7.61704826	      0.00000000	      0.00000000
      2.34000000	      2.11041708	    -25.56547516	      1.43337812	      0.02964134	      0.82979183	     -1.18760199	     42.31017044	    -28.46009187	    -31.87339213	     25.86676709	      0.00000000	      5.46368985	      0.45146025	     -4.53846479	      0.00000000	      0.00000000	     43.30741565	    -20.89815699	    -13.94778357	     19.76263037	      0.00000000	     -2.74080671	      0.34492297	     -7.27923040	      0.00000000	      0.00000000
      2.34500000	      2.45078687	    -25.28033453	      1.20682389	      0.02991948	      0.82904061	     -1.18758111	     41.86864449	    -28.63635312	    -33.02655092	     26.25515994	      0.00000000	      6.32154628	      0.45823899	     -4.41767272	      0.00000000	      0.00000000	     43.60786807	    -21.14548326	    -13.98632033	     20.42469745	      0.00000000	     -3.60254427	      0.35647822	     -6.96545004	      0.00000000	      0.00000000
      2.35000000	      2.23900011	    -26.48257531	      1.62467845	      0.02678148	      0.82729330	     -1.18789372	     44.38349763	    -29.16889626	    -31.30054738	     27.54152438	      0.00000000	      5.70926050	      0.48069028	     -4.07938960	      0.00000000	      0.00000000	     45.41976323	    -21.06426493	    -14.15398628	     21.48977846	      0.00000000	     -3.57791740	      0.37506739	     -6.64838177	      0.00000000	      0.00000000
      2.35500000	      2.55152124	    -26.10492176	      1.33420791	      0.02721411	      0.82645034	     -1.18778503	     43.79466437	    -29.29584734	    -32.48559049	     27.90314355	      0.00000000	      6.61254098	      0.48700173	     -3.90495424	      0.00000000	      0.00000000	     45.64119737	    -21.38469349	    -14.22496965	     22.17770090	      0.00000000	     -4.51725058	      0.38707390	     -6.30971129	      0.00000000	      0.00000000
      2.36000000	      2.48095748	    -26.47945262	      1.47850776	      0.02590287	      0.82504145	     -1.18790437	     44.86172976	    -29.66121611	    -31.99031112	     28.78209414	      0.00000000	      6.74703812	      0.50234231	     -3.67347348	      0.00000000	      0.00000000	     46.51195417	    -21.49943503	    -14.58781842	     23.01969392	      0.00000000	     -5.02608744	      0.40176945	     -5.91889718	      0.00000000	      0.00000000
      2.36500000	      2.58949421	    -26.76190996	      1.40677770	      0.02470196	      0.82367225	     -1.18783495	     45.54306035	    -29.87373387	    -31.93398502	     29.50153439	      0.00000000	      6.90974371	      0.51489891	     -3.42861436	      0.00000000	      0.00000000	     47.46843355	    -21.72117186	    -14.51616832	     23.89824286	      0.00000000	     -5.44755241	      0.41710302	     -5.70793577	      0.00000000	      0.00000000
      2.37000000	      2.61947974	    -27.05922836	      1.48400701	      0.02348936	      0.82219776	     -1.18786281	     46.40690336	    -30.20600625	    -31.64830480	     30.32345556	      0.00000000	      7.06390527	      0.52924414	     -3.18464565	      0.00000000	      0.00000000	     48.32759318	    -21.85567190	    -14.66704461	     24.73574199	      0.00000000	     -5.90951060	      0.43172014	     -5.38688736	      0.00000000	      0.00000000
      2.37500000	      2.49345699	    -28.47129397	      2.23640175	      0.01975139	      0.81992486	     -1.18828127	     49.52165614	    -30.98906648	    -29.47847969	     31.85227331	      0.00000000	      6.36373424	      0.55592704	     -2.86756233	      0.00000000	      0.00000000	     50.25422930	    -21.48635454	    -14.62708354	     25.65845720	      0.00000000	     -5.42631971	      0.44782456	     -5.23523146	      0.00000000	      0.00000000
